<mxfile host="app.diagrams.net" modified="2022-02-25T00:30:19.420Z" agent="5.0 (Windows NT 10.0; Win64; x64) AppleWebKit/537.36 (KHTML, like Gecko) Chrome/98.0.4758.102 Safari/537.36" etag="HMneUJo80izIm-10HmdK" version="16.6.4" type="github">
  <diagram id="rs5LrS3yjigf87WkTgGt" name="Page-1">
    <mxGraphModel dx="2615" dy="723" grid="1" gridSize="10" guides="1" tooltips="1" connect="1" arrows="1" fold="1" page="1" pageScale="1" pageWidth="1200" pageHeight="1600" math="0" shadow="0">
      <root>
        <mxCell id="0" />
        <mxCell id="1" parent="0" />
        <mxCell id="gYe92Rgtv7boX88liuPo-2" value="Meta-RL" style="rounded=1;whiteSpace=wrap;html=1;fillColor=#B2C9AB;strokeColor=#788AA3;fontColor=#46495D;" vertex="1" parent="1">
          <mxGeometry x="-312.5" y="10" width="70" height="30" as="geometry" />
        </mxCell>
        <mxCell id="gYe92Rgtv7boX88liuPo-4" value="Online" style="rounded=1;whiteSpace=wrap;html=1;fillColor=#B2C9AB;strokeColor=#788AA3;fontColor=#46495D;" vertex="1" parent="1">
          <mxGeometry x="120" y="60" width="100" height="30" as="geometry" />
        </mxCell>
        <mxCell id="gYe92Rgtv7boX88liuPo-8" value="" style="endArrow=none;html=1;rounded=0;entryX=0.432;entryY=-0.027;entryDx=0;entryDy=0;entryPerimeter=0;exitX=0.5;exitY=1;exitDx=0;exitDy=0;strokeColor=#788AA3;fontColor=#46495D;" edge="1" parent="1" source="gYe92Rgtv7boX88liuPo-2" target="gYe92Rgtv7boX88liuPo-4">
          <mxGeometry width="50" height="50" relative="1" as="geometry">
            <mxPoint x="-130" y="250" as="sourcePoint" />
            <mxPoint x="110" y="400" as="targetPoint" />
          </mxGeometry>
        </mxCell>
        <mxCell id="gYe92Rgtv7boX88liuPo-9" value="" style="endArrow=none;html=1;rounded=0;exitX=0.5;exitY=1;exitDx=0;exitDy=0;entryX=0.5;entryY=0;entryDx=0;entryDy=0;strokeColor=#788AA3;fontColor=#46495D;" edge="1" parent="1" source="gYe92Rgtv7boX88liuPo-2" target="gYe92Rgtv7boX88liuPo-434">
          <mxGeometry width="50" height="50" relative="1" as="geometry">
            <mxPoint x="60" y="450" as="sourcePoint" />
            <mxPoint x="-180" y="250" as="targetPoint" />
          </mxGeometry>
        </mxCell>
        <mxCell id="gYe92Rgtv7boX88liuPo-12" value="Model-Based" style="rounded=1;whiteSpace=wrap;html=1;fillColor=#B2C9AB;strokeColor=#788AA3;fontColor=#46495D;" vertex="1" parent="1">
          <mxGeometry x="-1080" y="135" width="120" height="30" as="geometry" />
        </mxCell>
        <mxCell id="gYe92Rgtv7boX88liuPo-434" value="Offline" style="rounded=1;whiteSpace=wrap;html=1;fillColor=#B2C9AB;strokeColor=#788AA3;fontColor=#46495D;" vertex="1" parent="1">
          <mxGeometry x="-730" y="60" width="100" height="30" as="geometry" />
        </mxCell>
        <mxCell id="gYe92Rgtv7boX88liuPo-440" value="" style="endArrow=none;html=1;rounded=0;exitX=0.5;exitY=1;exitDx=0;exitDy=0;entryX=0.5;entryY=0;entryDx=0;entryDy=0;strokeColor=#788AA3;fontColor=#46495D;" edge="1" parent="1" source="gYe92Rgtv7boX88liuPo-434" target="gYe92Rgtv7boX88liuPo-12">
          <mxGeometry width="50" height="50" relative="1" as="geometry">
            <mxPoint x="-20" y="420" as="sourcePoint" />
            <mxPoint x="30" y="370" as="targetPoint" />
          </mxGeometry>
        </mxCell>
        <mxCell id="gYe92Rgtv7boX88liuPo-441" value="Model-Free" style="rounded=1;whiteSpace=wrap;html=1;fillColor=#B2C9AB;strokeColor=#788AA3;fontColor=#46495D;" vertex="1" parent="1">
          <mxGeometry x="-890" y="135" width="130" height="30" as="geometry" />
        </mxCell>
        <mxCell id="gYe92Rgtv7boX88liuPo-443" value="Compare" style="rounded=1;whiteSpace=wrap;html=1;fillColor=#B2C9AB;strokeColor=#788AA3;fontColor=#46495D;" vertex="1" parent="1">
          <mxGeometry x="-460" y="135" width="60" height="30" as="geometry" />
        </mxCell>
        <mxCell id="gYe92Rgtv7boX88liuPo-445" value="" style="endArrow=none;html=1;rounded=0;exitX=0.5;exitY=1;exitDx=0;exitDy=0;entryX=0.5;entryY=0;entryDx=0;entryDy=0;strokeColor=#788AA3;fontColor=#46495D;" edge="1" parent="1" source="gYe92Rgtv7boX88liuPo-434" target="gYe92Rgtv7boX88liuPo-441">
          <mxGeometry width="50" height="50" relative="1" as="geometry">
            <mxPoint x="-20" y="320" as="sourcePoint" />
            <mxPoint x="30" y="270" as="targetPoint" />
          </mxGeometry>
        </mxCell>
        <mxCell id="gYe92Rgtv7boX88liuPo-448" value="" style="endArrow=none;html=1;rounded=0;exitX=0.5;exitY=1;exitDx=0;exitDy=0;entryX=0.5;entryY=0;entryDx=0;entryDy=0;startArrow=none;strokeColor=#788AA3;fontColor=#46495D;" edge="1" parent="1" source="gYe92Rgtv7boX88liuPo-434" target="gYe92Rgtv7boX88liuPo-443">
          <mxGeometry width="50" height="50" relative="1" as="geometry">
            <mxPoint x="-20" y="320" as="sourcePoint" />
            <mxPoint x="30" y="270" as="targetPoint" />
          </mxGeometry>
        </mxCell>
        <mxCell id="gYe92Rgtv7boX88liuPo-452" value="Model-Based" style="rounded=1;whiteSpace=wrap;html=1;fillColor=#B2C9AB;strokeColor=#788AA3;fontColor=#46495D;" vertex="1" parent="1">
          <mxGeometry x="-170" y="135" width="105" height="30" as="geometry" />
        </mxCell>
        <mxCell id="gYe92Rgtv7boX88liuPo-453" value="Model-Free" style="rounded=1;whiteSpace=wrap;html=1;fillColor=#B2C9AB;strokeColor=#788AA3;fontColor=#46495D;" vertex="1" parent="1">
          <mxGeometry x="30" y="135" width="90" height="30" as="geometry" />
        </mxCell>
        <mxCell id="gYe92Rgtv7boX88liuPo-454" value="Hybrid" style="rounded=1;whiteSpace=wrap;html=1;fillColor=#B2C9AB;strokeColor=#788AA3;fontColor=#46495D;" vertex="1" parent="1">
          <mxGeometry x="210" y="140" width="70" height="30" as="geometry" />
        </mxCell>
        <mxCell id="gYe92Rgtv7boX88liuPo-455" value="Compare" style="rounded=1;whiteSpace=wrap;html=1;fillColor=#B2C9AB;strokeColor=#788AA3;fontColor=#46495D;" vertex="1" parent="1">
          <mxGeometry x="430" y="140" width="60" height="30" as="geometry" />
        </mxCell>
        <mxCell id="gYe92Rgtv7boX88liuPo-457" value="" style="endArrow=none;html=1;rounded=0;entryX=0.5;entryY=1;entryDx=0;entryDy=0;exitX=0.5;exitY=0;exitDx=0;exitDy=0;strokeColor=#788AA3;fontColor=#46495D;" edge="1" parent="1" source="gYe92Rgtv7boX88liuPo-452" target="gYe92Rgtv7boX88liuPo-4">
          <mxGeometry width="50" height="50" relative="1" as="geometry">
            <mxPoint x="-20" y="220" as="sourcePoint" />
            <mxPoint x="30" y="170" as="targetPoint" />
          </mxGeometry>
        </mxCell>
        <mxCell id="gYe92Rgtv7boX88liuPo-458" value="" style="endArrow=none;html=1;rounded=0;exitX=0.5;exitY=0;exitDx=0;exitDy=0;entryX=0.5;entryY=1;entryDx=0;entryDy=0;strokeColor=#788AA3;fontColor=#46495D;" edge="1" parent="1" source="gYe92Rgtv7boX88liuPo-453" target="gYe92Rgtv7boX88liuPo-4">
          <mxGeometry width="50" height="50" relative="1" as="geometry">
            <mxPoint x="-20" y="220" as="sourcePoint" />
            <mxPoint x="40" y="180" as="targetPoint" />
          </mxGeometry>
        </mxCell>
        <mxCell id="gYe92Rgtv7boX88liuPo-459" value="" style="endArrow=none;html=1;rounded=0;exitX=0.5;exitY=0;exitDx=0;exitDy=0;entryX=0.5;entryY=1;entryDx=0;entryDy=0;strokeColor=#788AA3;fontColor=#46495D;" edge="1" parent="1" source="gYe92Rgtv7boX88liuPo-454" target="gYe92Rgtv7boX88liuPo-4">
          <mxGeometry width="50" height="50" relative="1" as="geometry">
            <mxPoint x="-20" y="220" as="sourcePoint" />
            <mxPoint x="40" y="180" as="targetPoint" />
          </mxGeometry>
        </mxCell>
        <mxCell id="gYe92Rgtv7boX88liuPo-460" value="" style="endArrow=none;html=1;rounded=0;exitX=0.5;exitY=0;exitDx=0;exitDy=0;strokeColor=#788AA3;fontColor=#46495D;entryX=0.5;entryY=1;entryDx=0;entryDy=0;" edge="1" parent="1" source="gYe92Rgtv7boX88liuPo-455" target="gYe92Rgtv7boX88liuPo-4">
          <mxGeometry width="50" height="50" relative="1" as="geometry">
            <mxPoint x="-20" y="220" as="sourcePoint" />
            <mxPoint x="40" y="180" as="targetPoint" />
          </mxGeometry>
        </mxCell>
        <mxCell id="gYe92Rgtv7boX88liuPo-467" value="" style="endArrow=none;html=1;rounded=0;exitX=0.5;exitY=1;exitDx=0;exitDy=0;entryX=0.5;entryY=0;entryDx=0;entryDy=0;strokeColor=#788AA3;fontColor=#46495D;" edge="1" parent="1" source="gYe92Rgtv7boX88liuPo-434" target="gYe92Rgtv7boX88liuPo-605">
          <mxGeometry width="50" height="50" relative="1" as="geometry">
            <mxPoint x="-270" y="130" as="sourcePoint" />
            <mxPoint x="-457.5" y="129.9999999999999" as="targetPoint" />
          </mxGeometry>
        </mxCell>
        <mxCell id="gYe92Rgtv7boX88liuPo-585" value="" style="endArrow=none;html=1;rounded=1;sketch=0;fontColor=#46495D;strokeColor=#788AA3;fillColor=#B2C9AB;curved=0;exitX=0.5;exitY=1;exitDx=0;exitDy=0;entryX=0.5;entryY=0;entryDx=0;entryDy=0;" edge="1" parent="1" source="gYe92Rgtv7boX88liuPo-12" target="gYe92Rgtv7boX88liuPo-595">
          <mxGeometry width="50" height="50" relative="1" as="geometry">
            <mxPoint x="-390" y="400" as="sourcePoint" />
            <mxPoint x="-900" y="270" as="targetPoint" />
          </mxGeometry>
        </mxCell>
        <mxCell id="gYe92Rgtv7boX88liuPo-595" value="Meta-RL Offline Model-Based" style="swimlane;rounded=0;labelBackgroundColor=none;sketch=0;fontColor=#46495D;strokeColor=#788AA3;fillColor=#B2C9AB;gradientColor=none;" vertex="1" parent="1">
          <mxGeometry x="-1190" y="210" width="205" height="300" as="geometry" />
        </mxCell>
        <mxCell id="gYe92Rgtv7boX88liuPo-596" value="Meta-RL Offline Model-Free" style="swimlane;rounded=0;labelBackgroundColor=none;sketch=0;fontColor=#46495D;strokeColor=#788AA3;fillColor=#B2C9AB;gradientColor=none;" vertex="1" parent="1">
          <mxGeometry x="-960" y="210" width="190" height="300" as="geometry" />
        </mxCell>
        <mxCell id="gYe92Rgtv7boX88liuPo-597" value="Meta-RL Offline Hybrid" style="swimlane;rounded=0;labelBackgroundColor=none;sketch=0;fontColor=#46495D;strokeColor=#788AA3;fillColor=#B2C9AB;gradientColor=none;" vertex="1" parent="1">
          <mxGeometry x="-740" y="210" width="190" height="300" as="geometry" />
        </mxCell>
        <mxCell id="gYe92Rgtv7boX88liuPo-598" value="Meta-RL Offline Comparison" style="swimlane;rounded=0;labelBackgroundColor=none;sketch=0;fontColor=#46495D;strokeColor=#788AA3;fillColor=#B2C9AB;gradientColor=none;" vertex="1" parent="1">
          <mxGeometry x="-530" y="210" width="208" height="300" as="geometry" />
        </mxCell>
        <mxCell id="gYe92Rgtv7boX88liuPo-603" value="" style="endArrow=none;html=1;rounded=1;sketch=0;fontColor=#46495D;strokeColor=#788AA3;fillColor=#B2C9AB;curved=0;entryX=0.5;entryY=1;entryDx=0;entryDy=0;exitX=0.5;exitY=0;exitDx=0;exitDy=0;" edge="1" parent="1" source="gYe92Rgtv7boX88liuPo-596" target="gYe92Rgtv7boX88liuPo-441">
          <mxGeometry width="50" height="50" relative="1" as="geometry">
            <mxPoint x="-800" y="220" as="sourcePoint" />
            <mxPoint x="-750" y="170" as="targetPoint" />
          </mxGeometry>
        </mxCell>
        <mxCell id="gYe92Rgtv7boX88liuPo-604" value="" style="endArrow=none;html=1;rounded=1;sketch=0;fontColor=#46495D;strokeColor=#788AA3;fillColor=#B2C9AB;curved=0;entryX=0.5;entryY=1;entryDx=0;entryDy=0;exitX=0.5;exitY=0;exitDx=0;exitDy=0;" edge="1" parent="1" source="gYe92Rgtv7boX88liuPo-597" target="gYe92Rgtv7boX88liuPo-605">
          <mxGeometry width="50" height="50" relative="1" as="geometry">
            <mxPoint x="-510" y="340" as="sourcePoint" />
            <mxPoint x="-457.5" y="159.9999999999999" as="targetPoint" />
          </mxGeometry>
        </mxCell>
        <mxCell id="gYe92Rgtv7boX88liuPo-605" value="&lt;span&gt;Hybrid&lt;/span&gt;" style="rounded=1;whiteSpace=wrap;html=1;labelBackgroundColor=none;sketch=0;fontColor=#46495D;strokeColor=#788AA3;fillColor=#B2C9AB;gradientColor=none;" vertex="1" parent="1">
          <mxGeometry x="-630" y="135" width="60" height="30" as="geometry" />
        </mxCell>
        <mxCell id="gYe92Rgtv7boX88liuPo-607" value="" style="endArrow=none;html=1;rounded=1;sketch=0;fontColor=#46495D;strokeColor=#788AA3;fillColor=#B2C9AB;curved=0;entryX=0.5;entryY=1;entryDx=0;entryDy=0;exitX=0.5;exitY=0;exitDx=0;exitDy=0;" edge="1" parent="1" source="gYe92Rgtv7boX88liuPo-598" target="gYe92Rgtv7boX88liuPo-443">
          <mxGeometry width="50" height="50" relative="1" as="geometry">
            <mxPoint x="-500" y="330" as="sourcePoint" />
            <mxPoint x="-450" y="280" as="targetPoint" />
          </mxGeometry>
        </mxCell>
        <mxCell id="gYe92Rgtv7boX88liuPo-610" value="Meta-RL Online Model-Based" style="swimlane;rounded=0;labelBackgroundColor=none;sketch=0;fontColor=#46495D;strokeColor=#788AA3;fillColor=#B2C9AB;gradientColor=none;startSize=23;" vertex="1" parent="1">
          <mxGeometry x="-290" y="210" width="210" height="310" as="geometry" />
        </mxCell>
        <mxCell id="gYe92Rgtv7boX88liuPo-611" value="Meta-RL Online Model-Free" style="swimlane;rounded=0;labelBackgroundColor=none;sketch=0;fontColor=#46495D;strokeColor=#788AA3;fillColor=#B2C9AB;gradientColor=none;" vertex="1" parent="1">
          <mxGeometry x="-40" y="210" width="210" height="310" as="geometry" />
        </mxCell>
        <mxCell id="gYe92Rgtv7boX88liuPo-612" value="Meta-RL Online Hybrid" style="swimlane;rounded=0;labelBackgroundColor=none;sketch=0;fontColor=#46495D;strokeColor=#788AA3;fillColor=#B2C9AB;gradientColor=none;startSize=23;" vertex="1" parent="1">
          <mxGeometry x="200" y="210" width="190" height="310" as="geometry" />
        </mxCell>
        <mxCell id="gYe92Rgtv7boX88liuPo-613" value="Meta-RL Online Comparison" style="swimlane;rounded=0;labelBackgroundColor=none;sketch=0;fontColor=#46495D;strokeColor=#788AA3;fillColor=#B2C9AB;gradientColor=none;" vertex="1" parent="1">
          <mxGeometry x="420" y="210" width="208" height="310" as="geometry" />
        </mxCell>
        <mxCell id="gYe92Rgtv7boX88liuPo-617" value="" style="endArrow=none;html=1;rounded=1;sketch=0;fontColor=#46495D;strokeColor=#788AA3;fillColor=#B2C9AB;curved=0;exitX=0.5;exitY=1;exitDx=0;exitDy=0;entryX=0.5;entryY=0;entryDx=0;entryDy=0;" edge="1" parent="1" source="gYe92Rgtv7boX88liuPo-452" target="gYe92Rgtv7boX88liuPo-610">
          <mxGeometry width="50" height="50" relative="1" as="geometry">
            <mxPoint x="140" y="180" as="sourcePoint" />
            <mxPoint x="190" y="130" as="targetPoint" />
          </mxGeometry>
        </mxCell>
        <mxCell id="gYe92Rgtv7boX88liuPo-618" value="" style="endArrow=none;html=1;rounded=1;sketch=0;fontColor=#46495D;strokeColor=#788AA3;fillColor=#B2C9AB;curved=0;entryX=0.5;entryY=1;entryDx=0;entryDy=0;exitX=0.5;exitY=0;exitDx=0;exitDy=0;" edge="1" parent="1" source="gYe92Rgtv7boX88liuPo-611" target="gYe92Rgtv7boX88liuPo-453">
          <mxGeometry width="50" height="50" relative="1" as="geometry">
            <mxPoint x="140" y="180" as="sourcePoint" />
            <mxPoint x="190" y="130" as="targetPoint" />
          </mxGeometry>
        </mxCell>
        <mxCell id="gYe92Rgtv7boX88liuPo-619" value="" style="endArrow=none;html=1;rounded=1;sketch=0;fontColor=#46495D;strokeColor=#788AA3;fillColor=#B2C9AB;curved=0;entryX=0.5;entryY=1;entryDx=0;entryDy=0;exitX=0.5;exitY=0;exitDx=0;exitDy=0;" edge="1" parent="1" source="gYe92Rgtv7boX88liuPo-612" target="gYe92Rgtv7boX88liuPo-454">
          <mxGeometry width="50" height="50" relative="1" as="geometry">
            <mxPoint x="140" y="180" as="sourcePoint" />
            <mxPoint x="190" y="130" as="targetPoint" />
          </mxGeometry>
        </mxCell>
        <mxCell id="gYe92Rgtv7boX88liuPo-620" value="" style="endArrow=none;html=1;rounded=1;sketch=0;fontColor=#46495D;strokeColor=#788AA3;fillColor=#B2C9AB;curved=0;entryX=0.5;entryY=1;entryDx=0;entryDy=0;exitX=0.5;exitY=0;exitDx=0;exitDy=0;" edge="1" parent="1" source="gYe92Rgtv7boX88liuPo-613" target="gYe92Rgtv7boX88liuPo-455">
          <mxGeometry width="50" height="50" relative="1" as="geometry">
            <mxPoint x="140" y="180" as="sourcePoint" />
            <mxPoint x="190" y="130" as="targetPoint" />
          </mxGeometry>
        </mxCell>
        <mxCell id="gYe92Rgtv7boX88liuPo-622" value="RL" style="rounded=1;whiteSpace=wrap;html=1;fillColor=#B2C9AB;strokeColor=#788AA3;fontColor=#46495D;" vertex="1" parent="1">
          <mxGeometry x="1727.5" y="10" width="70" height="30" as="geometry" />
        </mxCell>
        <mxCell id="gYe92Rgtv7boX88liuPo-623" value="Online" style="rounded=1;whiteSpace=wrap;html=1;fillColor=#B2C9AB;strokeColor=#788AA3;fontColor=#46495D;" vertex="1" parent="1">
          <mxGeometry x="2160" y="60" width="100" height="30" as="geometry" />
        </mxCell>
        <mxCell id="gYe92Rgtv7boX88liuPo-624" value="" style="endArrow=none;html=1;rounded=0;entryX=0.432;entryY=-0.027;entryDx=0;entryDy=0;entryPerimeter=0;exitX=0.5;exitY=1;exitDx=0;exitDy=0;strokeColor=#788AA3;fontColor=#46495D;" edge="1" parent="1" source="gYe92Rgtv7boX88liuPo-622" target="gYe92Rgtv7boX88liuPo-623">
          <mxGeometry width="50" height="50" relative="1" as="geometry">
            <mxPoint x="1910" y="250" as="sourcePoint" />
            <mxPoint x="2150" y="400" as="targetPoint" />
          </mxGeometry>
        </mxCell>
        <mxCell id="gYe92Rgtv7boX88liuPo-625" value="" style="endArrow=none;html=1;rounded=0;entryX=0.5;entryY=0;entryDx=0;entryDy=0;strokeColor=#788AA3;fontColor=#46495D;" edge="1" parent="1" target="gYe92Rgtv7boX88liuPo-627">
          <mxGeometry width="50" height="50" relative="1" as="geometry">
            <mxPoint x="1770" y="40" as="sourcePoint" />
            <mxPoint x="1860" y="250" as="targetPoint" />
          </mxGeometry>
        </mxCell>
        <mxCell id="gYe92Rgtv7boX88liuPo-626" value="Model-Based" style="rounded=1;whiteSpace=wrap;html=1;fillColor=#B2C9AB;strokeColor=#788AA3;fontColor=#46495D;" vertex="1" parent="1">
          <mxGeometry x="960" y="135" width="120" height="30" as="geometry" />
        </mxCell>
        <mxCell id="gYe92Rgtv7boX88liuPo-627" value="Offline" style="rounded=1;whiteSpace=wrap;html=1;fillColor=#B2C9AB;strokeColor=#788AA3;fontColor=#46495D;" vertex="1" parent="1">
          <mxGeometry x="1310" y="60" width="100" height="30" as="geometry" />
        </mxCell>
        <mxCell id="gYe92Rgtv7boX88liuPo-628" value="" style="endArrow=none;html=1;rounded=0;exitX=0.5;exitY=1;exitDx=0;exitDy=0;entryX=0.5;entryY=0;entryDx=0;entryDy=0;strokeColor=#788AA3;fontColor=#46495D;" edge="1" parent="1" source="gYe92Rgtv7boX88liuPo-627" target="gYe92Rgtv7boX88liuPo-626">
          <mxGeometry width="50" height="50" relative="1" as="geometry">
            <mxPoint x="2020" y="420" as="sourcePoint" />
            <mxPoint x="2070" y="370" as="targetPoint" />
          </mxGeometry>
        </mxCell>
        <mxCell id="gYe92Rgtv7boX88liuPo-629" value="Model-Free" style="rounded=1;whiteSpace=wrap;html=1;fillColor=#B2C9AB;strokeColor=#788AA3;fontColor=#46495D;" vertex="1" parent="1">
          <mxGeometry x="1150" y="135" width="130" height="30" as="geometry" />
        </mxCell>
        <mxCell id="gYe92Rgtv7boX88liuPo-630" value="Compare" style="rounded=1;whiteSpace=wrap;html=1;fillColor=#B2C9AB;strokeColor=#788AA3;fontColor=#46495D;" vertex="1" parent="1">
          <mxGeometry x="1580" y="135" width="60" height="30" as="geometry" />
        </mxCell>
        <mxCell id="gYe92Rgtv7boX88liuPo-631" value="" style="endArrow=none;html=1;rounded=0;exitX=0.5;exitY=1;exitDx=0;exitDy=0;entryX=0.5;entryY=0;entryDx=0;entryDy=0;strokeColor=#788AA3;fontColor=#46495D;" edge="1" parent="1" source="gYe92Rgtv7boX88liuPo-627" target="gYe92Rgtv7boX88liuPo-629">
          <mxGeometry width="50" height="50" relative="1" as="geometry">
            <mxPoint x="2020" y="320" as="sourcePoint" />
            <mxPoint x="2070" y="270" as="targetPoint" />
          </mxGeometry>
        </mxCell>
        <mxCell id="gYe92Rgtv7boX88liuPo-632" value="" style="endArrow=none;html=1;rounded=0;exitX=0.5;exitY=1;exitDx=0;exitDy=0;entryX=0.5;entryY=0;entryDx=0;entryDy=0;startArrow=none;strokeColor=#788AA3;fontColor=#46495D;" edge="1" parent="1" source="gYe92Rgtv7boX88liuPo-627" target="gYe92Rgtv7boX88liuPo-630">
          <mxGeometry width="50" height="50" relative="1" as="geometry">
            <mxPoint x="2020" y="320" as="sourcePoint" />
            <mxPoint x="2070" y="270" as="targetPoint" />
          </mxGeometry>
        </mxCell>
        <mxCell id="gYe92Rgtv7boX88liuPo-633" value="Model-Based" style="rounded=1;whiteSpace=wrap;html=1;fillColor=#B2C9AB;strokeColor=#788AA3;fontColor=#46495D;" vertex="1" parent="1">
          <mxGeometry x="1870" y="135" width="105" height="30" as="geometry" />
        </mxCell>
        <mxCell id="gYe92Rgtv7boX88liuPo-634" value="Model-Free" style="rounded=1;whiteSpace=wrap;html=1;fillColor=#B2C9AB;strokeColor=#788AA3;fontColor=#46495D;" vertex="1" parent="1">
          <mxGeometry x="2070" y="135" width="90" height="30" as="geometry" />
        </mxCell>
        <mxCell id="gYe92Rgtv7boX88liuPo-635" value="Hybrid" style="rounded=1;whiteSpace=wrap;html=1;fillColor=#B2C9AB;strokeColor=#788AA3;fontColor=#46495D;" vertex="1" parent="1">
          <mxGeometry x="2250" y="140" width="70" height="30" as="geometry" />
        </mxCell>
        <mxCell id="gYe92Rgtv7boX88liuPo-636" value="Compare" style="rounded=1;whiteSpace=wrap;html=1;fillColor=#B2C9AB;strokeColor=#788AA3;fontColor=#46495D;" vertex="1" parent="1">
          <mxGeometry x="2470" y="140" width="60" height="30" as="geometry" />
        </mxCell>
        <mxCell id="gYe92Rgtv7boX88liuPo-637" value="" style="endArrow=none;html=1;rounded=0;entryX=0.5;entryY=1;entryDx=0;entryDy=0;exitX=0.5;exitY=0;exitDx=0;exitDy=0;strokeColor=#788AA3;fontColor=#46495D;" edge="1" parent="1" source="gYe92Rgtv7boX88liuPo-633" target="gYe92Rgtv7boX88liuPo-623">
          <mxGeometry width="50" height="50" relative="1" as="geometry">
            <mxPoint x="2020" y="220" as="sourcePoint" />
            <mxPoint x="2070" y="170" as="targetPoint" />
          </mxGeometry>
        </mxCell>
        <mxCell id="gYe92Rgtv7boX88liuPo-638" value="" style="endArrow=none;html=1;rounded=0;exitX=0.5;exitY=0;exitDx=0;exitDy=0;entryX=0.5;entryY=1;entryDx=0;entryDy=0;strokeColor=#788AA3;fontColor=#46495D;" edge="1" parent="1" source="gYe92Rgtv7boX88liuPo-634" target="gYe92Rgtv7boX88liuPo-623">
          <mxGeometry width="50" height="50" relative="1" as="geometry">
            <mxPoint x="2020" y="220" as="sourcePoint" />
            <mxPoint x="2080" y="180" as="targetPoint" />
          </mxGeometry>
        </mxCell>
        <mxCell id="gYe92Rgtv7boX88liuPo-639" value="" style="endArrow=none;html=1;rounded=0;exitX=0.5;exitY=0;exitDx=0;exitDy=0;entryX=0.5;entryY=1;entryDx=0;entryDy=0;strokeColor=#788AA3;fontColor=#46495D;" edge="1" parent="1" source="gYe92Rgtv7boX88liuPo-635" target="gYe92Rgtv7boX88liuPo-623">
          <mxGeometry width="50" height="50" relative="1" as="geometry">
            <mxPoint x="2020" y="220" as="sourcePoint" />
            <mxPoint x="2080" y="180" as="targetPoint" />
          </mxGeometry>
        </mxCell>
        <mxCell id="gYe92Rgtv7boX88liuPo-640" value="" style="endArrow=none;html=1;rounded=0;exitX=0.5;exitY=0;exitDx=0;exitDy=0;strokeColor=#788AA3;fontColor=#46495D;entryX=0.5;entryY=1;entryDx=0;entryDy=0;" edge="1" parent="1" source="gYe92Rgtv7boX88liuPo-636" target="gYe92Rgtv7boX88liuPo-623">
          <mxGeometry width="50" height="50" relative="1" as="geometry">
            <mxPoint x="2020" y="220" as="sourcePoint" />
            <mxPoint x="2080" y="180" as="targetPoint" />
          </mxGeometry>
        </mxCell>
        <mxCell id="gYe92Rgtv7boX88liuPo-641" value="" style="endArrow=none;html=1;rounded=0;exitX=0.5;exitY=1;exitDx=0;exitDy=0;entryX=0.5;entryY=0;entryDx=0;entryDy=0;strokeColor=#788AA3;fontColor=#46495D;" edge="1" parent="1" source="gYe92Rgtv7boX88liuPo-627" target="gYe92Rgtv7boX88liuPo-649">
          <mxGeometry width="50" height="50" relative="1" as="geometry">
            <mxPoint x="1770" y="130" as="sourcePoint" />
            <mxPoint x="1582.5" y="129.9999999999999" as="targetPoint" />
          </mxGeometry>
        </mxCell>
        <mxCell id="gYe92Rgtv7boX88liuPo-642" value="" style="endArrow=none;html=1;rounded=1;sketch=0;fontColor=#46495D;strokeColor=#788AA3;fillColor=#B2C9AB;curved=0;exitX=0.5;exitY=1;exitDx=0;exitDy=0;entryX=0.5;entryY=0;entryDx=0;entryDy=0;" edge="1" parent="1" source="gYe92Rgtv7boX88liuPo-626" target="gYe92Rgtv7boX88liuPo-643">
          <mxGeometry width="50" height="50" relative="1" as="geometry">
            <mxPoint x="1650" y="400" as="sourcePoint" />
            <mxPoint x="1140" y="270" as="targetPoint" />
          </mxGeometry>
        </mxCell>
        <mxCell id="gYe92Rgtv7boX88liuPo-643" value="RL Offline Model-Based" style="swimlane;rounded=0;labelBackgroundColor=none;sketch=0;fontColor=#46495D;strokeColor=#788AA3;fillColor=#B2C9AB;gradientColor=none;" vertex="1" parent="1">
          <mxGeometry x="850" y="210" width="205" height="300" as="geometry" />
        </mxCell>
        <mxCell id="gYe92Rgtv7boX88liuPo-644" value="RL Offline Model-Free" style="swimlane;rounded=0;labelBackgroundColor=none;sketch=0;fontColor=#46495D;strokeColor=#788AA3;fillColor=#B2C9AB;gradientColor=none;" vertex="1" parent="1">
          <mxGeometry x="1080" y="210" width="190" height="300" as="geometry" />
        </mxCell>
        <mxCell id="gYe92Rgtv7boX88liuPo-645" value="RL Offline Hybrid" style="swimlane;rounded=0;labelBackgroundColor=none;sketch=0;fontColor=#46495D;strokeColor=#788AA3;fillColor=#B2C9AB;gradientColor=none;" vertex="1" parent="1">
          <mxGeometry x="1300" y="210" width="190" height="300" as="geometry" />
        </mxCell>
        <mxCell id="gYe92Rgtv7boX88liuPo-646" value="RL Offline Comparison" style="swimlane;rounded=0;labelBackgroundColor=none;sketch=0;fontColor=#46495D;strokeColor=#788AA3;fillColor=#B2C9AB;gradientColor=none;" vertex="1" parent="1">
          <mxGeometry x="1510" y="210" width="208" height="300" as="geometry" />
        </mxCell>
        <mxCell id="gYe92Rgtv7boX88liuPo-647" value="" style="endArrow=none;html=1;rounded=1;sketch=0;fontColor=#46495D;strokeColor=#788AA3;fillColor=#B2C9AB;curved=0;entryX=0.5;entryY=1;entryDx=0;entryDy=0;exitX=0.5;exitY=0;exitDx=0;exitDy=0;" edge="1" parent="1" source="gYe92Rgtv7boX88liuPo-644" target="gYe92Rgtv7boX88liuPo-629">
          <mxGeometry width="50" height="50" relative="1" as="geometry">
            <mxPoint x="1240" y="220" as="sourcePoint" />
            <mxPoint x="1290" y="170" as="targetPoint" />
          </mxGeometry>
        </mxCell>
        <mxCell id="gYe92Rgtv7boX88liuPo-648" value="" style="endArrow=none;html=1;rounded=1;sketch=0;fontColor=#46495D;strokeColor=#788AA3;fillColor=#B2C9AB;curved=0;entryX=0.5;entryY=1;entryDx=0;entryDy=0;exitX=0.5;exitY=0;exitDx=0;exitDy=0;" edge="1" parent="1" source="gYe92Rgtv7boX88liuPo-645" target="gYe92Rgtv7boX88liuPo-649">
          <mxGeometry width="50" height="50" relative="1" as="geometry">
            <mxPoint x="1530" y="340" as="sourcePoint" />
            <mxPoint x="1582.5" y="159.9999999999999" as="targetPoint" />
          </mxGeometry>
        </mxCell>
        <mxCell id="gYe92Rgtv7boX88liuPo-649" value="&lt;span&gt;Hybrid&lt;/span&gt;" style="rounded=1;whiteSpace=wrap;html=1;labelBackgroundColor=none;sketch=0;fontColor=#46495D;strokeColor=#788AA3;fillColor=#B2C9AB;gradientColor=none;" vertex="1" parent="1">
          <mxGeometry x="1410" y="135" width="60" height="30" as="geometry" />
        </mxCell>
        <mxCell id="gYe92Rgtv7boX88liuPo-650" value="" style="endArrow=none;html=1;rounded=1;sketch=0;fontColor=#46495D;strokeColor=#788AA3;fillColor=#B2C9AB;curved=0;entryX=0.5;entryY=1;entryDx=0;entryDy=0;exitX=0.5;exitY=0;exitDx=0;exitDy=0;" edge="1" parent="1" source="gYe92Rgtv7boX88liuPo-646" target="gYe92Rgtv7boX88liuPo-630">
          <mxGeometry width="50" height="50" relative="1" as="geometry">
            <mxPoint x="1540" y="330" as="sourcePoint" />
            <mxPoint x="1590" y="280" as="targetPoint" />
          </mxGeometry>
        </mxCell>
        <mxCell id="gYe92Rgtv7boX88liuPo-651" value="RL Online Model-Based" style="swimlane;rounded=0;labelBackgroundColor=none;sketch=0;fontColor=#46495D;strokeColor=#788AA3;fillColor=#B2C9AB;gradientColor=none;startSize=23;" vertex="1" parent="1">
          <mxGeometry x="1750" y="210" width="210" height="310" as="geometry" />
        </mxCell>
        <mxCell id="gYe92Rgtv7boX88liuPo-652" value="RL Online Model-Free" style="swimlane;rounded=0;labelBackgroundColor=none;sketch=0;fontColor=#46495D;strokeColor=#788AA3;fillColor=#B2C9AB;gradientColor=none;" vertex="1" parent="1">
          <mxGeometry x="2000" y="210" width="210" height="310" as="geometry" />
        </mxCell>
        <mxCell id="gYe92Rgtv7boX88liuPo-653" value="RL Online Hybrid" style="swimlane;rounded=0;labelBackgroundColor=none;sketch=0;fontColor=#46495D;strokeColor=#788AA3;fillColor=#B2C9AB;gradientColor=none;startSize=23;" vertex="1" parent="1">
          <mxGeometry x="2240" y="210" width="190" height="310" as="geometry" />
        </mxCell>
        <mxCell id="gYe92Rgtv7boX88liuPo-654" value="RL Online Comparison" style="swimlane;rounded=0;labelBackgroundColor=none;sketch=0;fontColor=#46495D;strokeColor=#788AA3;fillColor=#B2C9AB;gradientColor=none;" vertex="1" parent="1">
          <mxGeometry x="2460" y="210" width="208" height="310" as="geometry" />
        </mxCell>
        <mxCell id="gYe92Rgtv7boX88liuPo-655" value="" style="endArrow=none;html=1;rounded=1;sketch=0;fontColor=#46495D;strokeColor=#788AA3;fillColor=#B2C9AB;curved=0;exitX=0.5;exitY=1;exitDx=0;exitDy=0;entryX=0.5;entryY=0;entryDx=0;entryDy=0;" edge="1" parent="1" source="gYe92Rgtv7boX88liuPo-633" target="gYe92Rgtv7boX88liuPo-651">
          <mxGeometry width="50" height="50" relative="1" as="geometry">
            <mxPoint x="2180" y="180" as="sourcePoint" />
            <mxPoint x="2230" y="130" as="targetPoint" />
          </mxGeometry>
        </mxCell>
        <mxCell id="gYe92Rgtv7boX88liuPo-656" value="" style="endArrow=none;html=1;rounded=1;sketch=0;fontColor=#46495D;strokeColor=#788AA3;fillColor=#B2C9AB;curved=0;entryX=0.5;entryY=1;entryDx=0;entryDy=0;exitX=0.5;exitY=0;exitDx=0;exitDy=0;" edge="1" parent="1" source="gYe92Rgtv7boX88liuPo-652" target="gYe92Rgtv7boX88liuPo-634">
          <mxGeometry width="50" height="50" relative="1" as="geometry">
            <mxPoint x="2180" y="180" as="sourcePoint" />
            <mxPoint x="2230" y="130" as="targetPoint" />
          </mxGeometry>
        </mxCell>
        <mxCell id="gYe92Rgtv7boX88liuPo-657" value="" style="endArrow=none;html=1;rounded=1;sketch=0;fontColor=#46495D;strokeColor=#788AA3;fillColor=#B2C9AB;curved=0;entryX=0.5;entryY=1;entryDx=0;entryDy=0;exitX=0.5;exitY=0;exitDx=0;exitDy=0;" edge="1" parent="1" source="gYe92Rgtv7boX88liuPo-653" target="gYe92Rgtv7boX88liuPo-635">
          <mxGeometry width="50" height="50" relative="1" as="geometry">
            <mxPoint x="2180" y="180" as="sourcePoint" />
            <mxPoint x="2230" y="130" as="targetPoint" />
          </mxGeometry>
        </mxCell>
        <mxCell id="gYe92Rgtv7boX88liuPo-658" value="" style="endArrow=none;html=1;rounded=1;sketch=0;fontColor=#46495D;strokeColor=#788AA3;fillColor=#B2C9AB;curved=0;entryX=0.5;entryY=1;entryDx=0;entryDy=0;exitX=0.5;exitY=0;exitDx=0;exitDy=0;" edge="1" parent="1" source="gYe92Rgtv7boX88liuPo-654" target="gYe92Rgtv7boX88liuPo-636">
          <mxGeometry width="50" height="50" relative="1" as="geometry">
            <mxPoint x="2180" y="180" as="sourcePoint" />
            <mxPoint x="2230" y="130" as="targetPoint" />
          </mxGeometry>
        </mxCell>
      </root>
    </mxGraphModel>
  </diagram>
</mxfile>
